<svg width="340" height="220" viewBox="0 0 340 220" fill="none" xmlns="http://www.w3.org/2000/svg">
  <rect width="340" height="220" fill="#f8f9fa"/>
  <!-- House -->
  <g>
    <polygon points="170,60 100,120 240,120" fill="#ffd166" stroke="#ffa600" stroke-width="3"/>
    <rect x="120" y="120" width="100" height="60" rx="10" fill="#fff" stroke="#ffd166" stroke-width="3"/>
    <rect x="155" y="150" width="30" height="30" rx="5" fill="#ffd166" stroke="#ffa600" stroke-width="2"/>
    <rect x="130" y="135" width="20" height="20" rx="4" fill="#e0e0e0"/>
    <rect x="190" y="135" width="20" height="20" rx="4" fill="#e0e0e0"/>
    <circle cx="170" cy="165" r="3" fill="#ffa600"/>
  </g>
  <!-- Balloons -->
  <g>
    <ellipse cx="70" cy="60" rx="18" ry="24" fill="#ef476f"/>
    <ellipse cx="270" cy="50" rx="15" ry="20" fill="#06d6a0"/>
    <ellipse cx="300" cy="90" rx="12" ry="16" fill="#118ab2"/>
    <ellipse cx="50" cy="100" rx="10" ry="14" fill="#ffd166"/>
    <line x1="70" y1="84" x2="120" y2="130" stroke="#ef476f" stroke-width="2"/>
    <line x1="270" y1="70" x2="210" y2="130" stroke="#06d6a0" stroke-width="2"/>
    <line x1="300" y1="106" x2="210" y2="130" stroke="#118ab2" stroke-width="2"/>
    <line x1="50" y1="114" x2="120" y2="130" stroke="#ffd166" stroke-width="2"/>
  </g>
  <!-- Confetti -->
  <g>
    <circle cx="60" cy="30" r="3" fill="#ef476f"/>
    <circle cx="80" cy="20" r="2" fill="#06d6a0"/>
    <circle cx="300" cy="30" r="2.5" fill="#ffd166"/>
    <circle cx="320" cy="60" r="2" fill="#118ab2"/>
    <circle cx="40" cy="180" r="2.5" fill="#06d6a0"/>
    <circle cx="290" cy="200" r="2" fill="#ef476f"/>
    <circle cx="170" cy="30" r="2.5" fill="#118ab2"/>
    <circle cx="200" cy="20" r="2" fill="#ffd166"/>
  </g>
  <!-- Text -->
  <text x="170" y="110" text-anchor="middle" font-size="38" fill="#ef476f" font-family="Segoe UI, Arial, sans-serif" font-weight="bold">404</text>
  <text x="170" y="200" text-anchor="middle" font-size="22" fill="#118ab2" font-family="Segoe UI, Arial, sans-serif">House Not Found</text>
</svg>
